<?xml version="1.0" encoding="utf-8"?>
<!-- Generator: Adobe Illustrator 23.0.3, SVG Export Plug-In . SVG Version: 6.00 Build 0)  -->
<svg version="1.1" id="Layer_1" xmlns="http://www.w3.org/2000/svg" xmlns:xlink="http://www.w3.org/1999/xlink" x="0px" y="0px"
	 width="1480px" height="295px" viewBox="0 0 1480 295" style="enable-background:new 0 0 1480 295;" xml:space="preserve">
<style type="text/css">
	.st0{fill:#FFFFFF;}
</style>
<g>
	<polygon class="st0" points="1313,205.698425 1207,61 1189,61 1189,238 1209,238 1209,96.857178 1313,238 1333,238 1333,61 
		1313,61 	"/>
	<polygon class="st0" points="965,61 941,61 891,129.076904 841,61 817,61 879,145.415405 811,238 835,238 891,161.753845 947,238 
		971,238 903,145.415405 	"/>
	<polygon class="st0" points="501,61 477,61 427,129.076904 377,61 353,61 415,145.415405 347,238 371,238 427,161.753845 483,238 
		507,238 439,145.415405 	"/>
	<polygon class="st0" points="1375,221 1375,155 1472,155 1472,138 1375,138 1375,78 1479,78 1479,61 1355,61 1355,238 1480,238 
		1480,221 	"/>
	<path class="st0" d="M644.919434,162.489929c-2.078125-3.654785-4.714905-7.014038-7.71106-9.888306
		c-2.985657-2.897827-6.35968-5.230957-9.817139-7.140625c-0.193481-0.105957-0.389648-0.197205-0.583618-0.300537
		c1.033691-0.737061,2.05304-1.504456,3.036438-2.340149c5.875854-4.943726,10.419678-11.820923,12.76416-19.096619
		c2.362793-7.302429,2.757141-14.766052,2.128723-21.664978c-0.329041-3.560791-0.98938-7.237732-2.183838-10.917847
		c-1.182434-3.675049-2.947815-7.341125-5.299805-10.655334c-2.34845-3.318359-5.282532-6.205933-8.426208-8.537598
		c-3.152893-2.33783-6.516785-4.112061-9.864685-5.497925c-3.354919-1.385193-6.712158-2.388611-10.032471-3.144043
		c-3.322205-0.759766-6.603088-1.301392-9.846741-1.641785c-3.247437-0.358704-6.456665-0.567261-9.631714-0.661682
		C586.269165,60.872253,583.129944,60.923584,580,61h-64v76h-29.296326L479,155h37v83h72
		c7.003784,0.203186,14.154785-0.272522,21.383362-1.738281c7.187378-1.561096,14.523438-4.166992,21.221741-8.67334
		c6.699402-4.423584,12.485779-11.041565,15.862976-18.600647c1.7146-3.759827,2.88739-7.688782,3.598511-11.594299
		c0.710083-3.920288,0.983398-7.77356,0.91803-11.614624c-0.091003-3.85791-0.547546-7.815063-1.517639-11.761719
		C648.499329,170.077026,647.016602,166.140137,644.919434,162.489929z M536,79h44
		c5.66803,0.239868,11.284668,0.564026,16.615051,1.436584c5.341431,0.797485,10.411072,2.096802,14.702026,3.973816
		c4.295654,1.915527,7.551514,4.39563,9.690125,7.503967c2.115723,3.125,3.407166,7.161743,3.807373,11.947327
		c0.393799,4.958496,0.119568,9.643127-1.192444,13.725281c-1.30072,4.079712-3.50531,7.567444-6.676392,10.41272
		c-3.16333,2.83905-7.258545,5.063293-11.909851,6.518188c-4.455444,1.453369-9.367798,2.172058-14.418152,2.445862
		c-1.881226-0.031189-3.754395-0.020569-5.617737,0.035522V137h-49V79z M628.385559,200.802307
		c-1.8573,4.3078-4.932861,7.775269-8.878601,10.671082c-3.966736,2.876343-8.963867,4.924805-14.357117,6.266174
		C599.749207,219.142456,593.927124,219.746643,588,220h-52v-65h49v-0.000732
		c3.017456,0.128418,6.010498,0.312744,8.951904,0.612122c2.93457,0.323914,5.82019,0.763,8.617004,1.354248
		c5.590942,1.141846,10.839966,2.933289,15.177856,5.495544c4.345093,2.57251,7.695801,5.795715,9.884155,9.758301
		c2.213989,3.941345,3.261963,8.738342,3.337158,13.957825C631.08606,191.479187,630.288025,196.54303,628.385559,200.802307z"/>
	<path class="st0" d="M807.290039,84.754883C791.960938,66.597656,770.334961,57,744.75,57s-47.210938,9.597656-62.540039,27.754883
		C668.209961,101.337891,660.5,124.419922,660.5,149.75c0,52.875977,36.219727,92.75,84.25,92.75S829,202.625977,829,149.75
		C829,124.419922,821.290039,101.337891,807.290039,84.754883z M744.75,223.5c-37.19873,0-65.25-31.706055-65.25-73.75
		c0-36.709473,20.175781-73.75,65.25-73.75S810,113.040527,810,149.75C810,191.793945,781.94873,223.5,744.75,223.5z"/>
	<path class="st0" d="M1086.75,57c-25.584961,0-47.210938,9.597656-62.540039,27.754883
		c-14,16.583008-21.709961,39.665039-21.709961,64.995117c0,52.875977,36.219727,92.75,84.25,92.75s84.25-39.874023,84.25-92.75
		c0-25.330078-7.709961-48.412109-21.709961-64.995117C1133.960938,66.597656,1112.334961,57,1086.75,57z M1086.75,223.5
		c-37.198242,0-65.25-31.706055-65.25-73.75c0-36.709473,20.175781-73.75,65.25-73.75s65.25,37.040527,65.25,73.75
		C1152,191.793945,1123.948242,223.5,1086.75,223.5z"/>
	<path class="st0" d="M186.883423,81.871155c0,0,77.521484,91.104309,77.521484,144.331299
		c0,4.912903-0.294128,8.930115-0.703247,12.151611C283.309448,213.311218,295,181.771545,295,147.5
		c0-41.399353-17.06311-78.807617-44.531311-105.596497c-1.229614-0.005005-2.646729-0.007813-4.284668-0.007813
		C223.987732,41.895691,186.883423,81.871155,186.883423,81.871155z"/>
	<path class="st0" d="M81.613525,22.460083C111.208618,21.907959,147.5,44.656433,147.5,44.656433
		s36.291382-22.748474,65.886475-22.19635c5.354614,0.099915,9.815308,0.36676,13.546387,0.73468
		C204.004639,8.512817,176.746643,0,147.5,0S90.995361,8.512817,68.067139,23.194763
		C71.798218,22.826843,76.258911,22.559998,81.613525,22.460083z"/>
	<path class="st0" d="M248.503052,246.300598c0-44.834351-101.003052-128.797546-101.003052-128.797546
		S46.496948,201.466248,46.496948,246.300598c0,3.658691,0.957397,7.375854,2.604919,11.071472
		C75.205872,280.765869,109.688477,295,147.5,295s72.294128-14.234131,98.398132-37.62793
		C247.545654,253.676453,248.503052,249.95929,248.503052,246.300598z"/>
	<path class="st0" d="M30.595093,226.202454c0-53.22699,77.521484-144.331299,77.521484-144.331299
		S71.012268,41.895691,48.815979,41.895691c-1.637939,0-3.055054,0.002808-4.284668,0.007813
		C17.06311,68.692383,0,106.100647,0,147.5c0,34.271545,11.690552,65.811218,31.29834,90.854065
		C30.889221,235.132568,30.595093,231.115356,30.595093,226.202454z"/>
</g>
</svg>
